<svg xmlns="http://www.w3.org/2000/svg" width="141" height="141" viewBox="0 0 141 141">
  <g id="Group_1784" data-name="Group 1784" transform="translate(-1384 -284)">
    <circle id="Ellipse_1" data-name="Ellipse 1" cx="70.5" cy="70.5" r="70.5" transform="translate(1384 284)" fill="#011061"/>
    <g id="user_1_" data-name="user (1)" transform="translate(1388.835 308.696)">
      <g id="Group_2" data-name="Group 2" transform="translate(41.386)">
        <g id="Group_1" data-name="Group 1" transform="translate(0)">
          <path id="Path_1" data-name="Path 1" d="M134.576,0a23.785,23.785,0,1,0,23.785,23.785A23.848,23.848,0,0,0,134.576,0Z" transform="translate(-110.791)" fill="#fff"/>
        </g>
      </g>
      <g id="Group_4" data-name="Group 4" transform="translate(24.165 49.271)">
        <g id="Group_3" data-name="Group 3" transform="translate(0)">
          <path id="Path_2" data-name="Path 2" d="M105.99,265.146a22.174,22.174,0,0,0-2.389-4.362A29.564,29.564,0,0,0,83.14,247.9a4.378,4.378,0,0,0-3.012.727,25.353,25.353,0,0,1-29.913,0A3.9,3.9,0,0,0,47.2,247.9a29.35,29.35,0,0,0-20.461,12.879,25.566,25.566,0,0,0-2.389,4.362,2.209,2.209,0,0,0,.1,1.974,41.438,41.438,0,0,0,2.8,4.155,39.473,39.473,0,0,0,4.778,5.4,62.252,62.252,0,0,0,4.778,4.155,47.364,47.364,0,0,0,56.5,0,45.665,45.665,0,0,0,4.778-4.155,47.963,47.963,0,0,0,4.778-5.4,36.412,36.412,0,0,0,2.8-4.155A1.772,1.772,0,0,0,105.99,265.146Z" transform="translate(-24.165 -247.841)" fill="#fff"/>
        </g>
      </g>
    </g>
  </g>
</svg>
